<svg width="440" height="320" viewBox="0 0 440 320" fill="none" xmlns="http://www.w3.org/2000/svg">
  <defs>
    <linearGradient id="bg" x1="30" y1="18" x2="404" y2="290" gradientUnits="userSpaceOnUse">
      <stop stop-color="#1A2A68"/>
      <stop offset="0.45" stop-color="#F28CB8"/>
      <stop offset="1" stop-color="#FFDFA7"/>
    </linearGradient>
    <radialGradient id="halo" cx="0" cy="0" r="1" gradientUnits="userSpaceOnUse" gradientTransform="translate(226 152) rotate(90) scale(94 138)">
      <stop stop-color="#FFF6F0"/>
      <stop offset="0.42" stop-color="#FFE0F0"/>
      <stop offset="1" stop-color="#FFFFFF" stop-opacity="0"/>
    </radialGradient>
  </defs>
  <rect width="440" height="320" rx="32" fill="url(#bg)"/>
  <circle cx="84" cy="78" r="60" fill="#FFFFFF" fill-opacity="0.12"/>
  <circle cx="358" cy="72" r="68" fill="#FFFFFF" fill-opacity="0.16"/>
  <rect x="96" y="60" width="248" height="200" rx="64" fill="url(#halo)"/>
  <path d="M120 234C170 162 224 126 286 112C322 104 350 132 348 166C346 208 310 244 246 274" fill="#F6B7AF"/>
  <rect x="154" y="100" width="40" height="100" rx="20" fill="#FFD8ED"/>
  <rect x="206" y="88" width="38" height="94" rx="19" fill="#FFF1C9"/>
  <rect x="254" y="98" width="34" height="86" rx="17" fill="#E7D9FF"/>
  <path d="M124 118C180 148 236 156 296 144" stroke="#FFFFFF" stroke-width="8" stroke-linecap="round" stroke-opacity="0.5"/>
  <path d="M118 256C184 218 252 206 326 218" stroke="#FFF2F8" stroke-width="12" stroke-linecap="round" stroke-opacity="0.45"/>
</svg>
