<svg width="440" height="320" viewBox="0 0 440 320" fill="none" xmlns="http://www.w3.org/2000/svg">
  <defs>
    <linearGradient id="bg" x1="42" y1="22" x2="392" y2="294" gradientUnits="userSpaceOnUse">
      <stop stop-color="#7D5F16"/>
      <stop offset="0.45" stop-color="#F2D59A"/>
      <stop offset="1" stop-color="#FFF6E2"/>
    </linearGradient>
  </defs>
  <rect width="440" height="320" rx="32" fill="url(#bg)"/>
  <circle cx="352" cy="72" r="76" fill="#FFFFFF" fill-opacity="0.22"/>
  <circle cx="92" cy="76" r="58" fill="#FFFFFF" fill-opacity="0.14"/>
  <path d="M86 252C138 180 202 138 280 120C314 112 346 128 354 156C366 196 324 238 244 280" fill="#F8D2C4"/>
  <rect x="160" y="94" width="42" height="102" rx="21" fill="#FFF9F0"/>
  <rect x="214" y="86" width="38" height="96" rx="19" fill="#FFE3EE"/>
  <rect x="262" y="96" width="34" height="88" rx="17" fill="#FFF1D5"/>
  <path d="M142 118L174 150L214 106" stroke="#FFFFFF" stroke-width="8" stroke-linecap="round" stroke-linejoin="round" stroke-opacity="0.72"/>
  <circle cx="286" cy="108" r="12" fill="#FFFFFF" fill-opacity="0.6"/>
  <circle cx="286" cy="108" r="5" fill="#F1BA42"/>
  <path d="M120 264C182 220 246 206 314 214" stroke="#FFF8E8" stroke-width="12" stroke-linecap="round" stroke-opacity="0.44"/>
</svg>
