<svg width="440" height="320" viewBox="0 0 440 320" fill="none" xmlns="http://www.w3.org/2000/svg">
  <defs>
    <linearGradient id="bg" x1="36" y1="18" x2="390" y2="290" gradientUnits="userSpaceOnUse">
      <stop stop-color="#7B204B"/>
      <stop offset="0.55" stop-color="#F7837F"/>
      <stop offset="1" stop-color="#FFD6C2"/>
    </linearGradient>
    <linearGradient id="shine" x1="106" y1="88" x2="312" y2="260" gradientUnits="userSpaceOnUse">
      <stop stop-color="#FFF2F8"/>
      <stop offset="1" stop-color="#FFE7B8"/>
    </linearGradient>
  </defs>
  <rect width="440" height="320" rx="32" fill="url(#bg)"/>
  <circle cx="92" cy="76" r="66" fill="#FFFFFF" fill-opacity="0.12"/>
  <circle cx="360" cy="252" r="84" fill="#FFFFFF" fill-opacity="0.08"/>
  <rect x="104" y="64" width="208" height="168" rx="60" fill="#FFF8F6" fill-opacity="0.2"/>
  <path d="M128 208C168 148 220 118 284 112C320 108 340 142 322 172C300 206 258 236 188 262" stroke="url(#shine)" stroke-width="22" stroke-linecap="round" stroke-opacity="0.85"/>
  <rect x="142" y="102" width="44" height="104" rx="22" fill="#FFE2EC"/>
  <rect x="198" y="92" width="42" height="102" rx="21" fill="#FFF1D6"/>
  <rect x="250" y="102" width="40" height="92" rx="20" fill="#FFD5E5"/>
  <path d="M86 252C138 210 194 194 256 202" stroke="#FFFFFF" stroke-width="10" stroke-linecap="round" stroke-opacity="0.45"/>
  <circle cx="334" cy="78" r="12" fill="#FFFFFF" fill-opacity="0.34"/>
</svg>
