<svg xmlns="http://www.w3.org/2000/svg" viewBox="0 0 512 512">
  <defs>
    <linearGradient id="bg" x1="0%" y1="0%" x2="100%" y2="100%">
      <stop offset="0%" stop-color="#2b5abc" />
      <stop offset="100%" stop-color="#132f67" />
    </linearGradient>
    <linearGradient id="glow" x1="0%" y1="0%" x2="100%" y2="100%">
      <stop offset="0%" stop-color="#ffd88a" />
      <stop offset="100%" stop-color="#ff8f8f" />
    </linearGradient>
  </defs>
  <rect width="512" height="512" rx="132" fill="url(#bg)" />
  <circle cx="390" cy="126" r="58" fill="rgba(255,255,255,0.14)" />
  <path
    d="M134 294c0-64 52-116 116-116h122c3 0 6 2 7 5l13 27c6 12-3 26-16 26H270c-31 0-56 25-56 56v22h192c14 0 22 16 14 27l-21 30c-2 3-6 5-10 5H156c-12 0-22-10-22-22z"
    fill="#fff7ea"
  />
  <path
    d="M268 152c0-10 8-18 18-18h82c10 0 18 8 18 18v14H268z"
    fill="url(#glow)"
  />
  <circle cx="202" cy="196" r="18" fill="url(#glow)" />
  <path
    d="M186 362c38-3 69-34 72-72"
    fill="none"
    stroke="#ffd88a"
    stroke-linecap="round"
    stroke-width="20"
  />
</svg>
